<svg xmlns="http://www.w3.org/2000/svg" xmlns:xlink="http://www.w3.org/1999/xlink" width="1080" zoomAndPan="magnify" viewBox="0 0 810 809.999993" height="1080" preserveAspectRatio="xMidYMid meet" version="1.0"><defs><clipPath id="27e3ecfd11"><path d="M 192 171 L 584 171 L 584 563 L 192 563 Z M 192 171 " clip-rule="nonzero"/></clipPath><clipPath id="5dcb05c4b1"><path d="M 300.648438 449.714844 C 302.34375 448.546875 470.5625 280.441406 470.605469 278.851562 C 470.867188 268.613281 470.742188 258.359375 470.742188 247.648438 C 449.554688 247.648438 429.371094 247.539062 409.195312 247.808594 C 406.953125 247.835938 300.8125 354.089844 300.796875 356.332031 C 300.582031 387.066406 300.648438 417.808594 300.648438 449.714844 M 470.769531 562.265625 L 470.769531 436.710938 C 467.757812 439.605469 343.144531 562.476562 340.300781 562.492188 C 292.171875 562.738281 193.796875 562.828125 192.410156 562.671875 C 192.289062 560.183594 192.378906 391.523438 192.265625 309.703125 C 192.257812 305.0625 326.394531 171.816406 330.144531 171.800781 C 411.957031 171.53125 580.714844 171.40625 583.4375 171.539062 C 583.4375 301.824219 583.007812 432.050781 583.007812 562.265625 Z M 470.769531 562.265625 " clip-rule="nonzero"/></clipPath><clipPath id="6466779cfc"><path d="M 0.238281 0.359375 L 391.441406 0.359375 L 391.441406 392 L 0.238281 392 Z M 0.238281 0.359375 " clip-rule="nonzero"/></clipPath><clipPath id="1dc5bbdefe"><path d="M 108.648438 278.714844 C 110.34375 277.546875 278.5625 109.441406 278.605469 107.851562 C 278.867188 97.613281 278.742188 87.359375 278.742188 76.648438 C 257.554688 76.648438 237.371094 76.539062 217.195312 76.808594 C 214.953125 76.835938 108.8125 183.089844 108.796875 185.332031 C 108.582031 216.066406 108.648438 246.808594 108.648438 278.714844 M 278.769531 391.265625 L 278.769531 265.710938 C 275.757812 268.605469 151.144531 391.476562 148.300781 391.492188 C 100.171875 391.738281 1.796875 391.828125 0.410156 391.671875 C 0.289062 389.183594 0.378906 220.523438 0.265625 138.703125 C 0.257812 134.0625 134.394531 0.816406 138.144531 0.800781 C 219.957031 0.53125 388.714844 0.40625 391.4375 0.539062 C 391.4375 130.824219 391.007812 261.050781 391.007812 391.265625 Z M 278.769531 391.265625 " clip-rule="nonzero"/></clipPath><clipPath id="8e2048d96c"><rect x="0" width="392" y="0" height="392"/></clipPath></defs><g clip-path="url(#27e3ecfd11)"><g clip-path="url(#5dcb05c4b1)"><g transform="matrix(1, 0, 0, 1, 192, 171)"><g clip-path="url(#8e2048d96c)"><g clip-path="url(#6466779cfc)"><g clip-path="url(#1dc5bbdefe)"><path fill="#000000" d="M 0.265625 0.488281 L 391.433594 0.488281 L 391.433594 391.65625 L 0.265625 391.65625 Z M 0.265625 0.488281 " fill-opacity="1" fill-rule="nonzero"/></g></g></g></g></g></g></svg>